<?xml version="1.0" encoding="utf-8"?>
<!-- Generator: Adobe Illustrator 23.0.4, SVG Export Plug-In . SVG Version: 6.00 Build 0)  -->
<svg version="1.1" id="Layer_1" xmlns="http://www.w3.org/2000/svg" xmlns:xlink="http://www.w3.org/1999/xlink" x="0px" y="0px"
	 viewBox="0 0 127 103" style="enable-background:new 0 0 127 103;" xml:space="preserve">
<style type="text/css">
	.st0{fill-rule:evenodd;clip-rule:evenodd;fill:#FFFFFF;}
</style>
<title>menu-icon-white</title>
<g id="Page-1">
	<g id="hamburger-button">
		<path id="Rectangle" class="st0" d="M10.5,0h106c5.8,0,10.5,4.7,10.5,10.5l0,0c0,5.8-4.7,10.5-10.5,10.5h-106
			C4.7,21,0,16.3,0,10.5l0,0C0,4.7,4.7,0,10.5,0z"/>
		<path id="Rectangle-Copy" class="st0" d="M10.5,41h69C85.3,41,90,45.7,90,51.5l0,0l0,0C90,57.3,85.3,62,79.5,62h-69
			C4.7,62,0,57.3,0,51.5l0,0C0,45.7,4.7,41,10.5,41L10.5,41z"/>
		<path id="Rectangle-Copy-2" class="st0" d="M10.5,82h43C59.3,82,64,86.7,64,92.5l0,0c0,5.8-4.7,10.5-10.5,10.5h-43
			C4.7,103,0,98.3,0,92.5l0,0C0,86.7,4.7,82,10.5,82z"/>
	</g>
</g>
</svg>
