<svg id="Layer_1" data-name="Layer 1" xmlns="http://www.w3.org/2000/svg" viewBox="0 0 95.95 95.95"><defs><style>.cls-1{fill:#fff;fill-rule:evenodd;}</style></defs><title>menu-close-white</title><g id="Page-1"><g id="hamburger-button"><path id="Rectangle" class="cls-1" d="M33.45,6.6l75,75a10.5,10.5,0,0,1,0,14.85h0a10.5,10.5,0,0,1-14.85,0L18.6,21.45a10.5,10.5,0,0,1,0-14.85h0A10.5,10.5,0,0,1,33.45,6.6Z" transform="translate(-15.52 -3.52)"/></g><g id="hamburger-button-2" data-name="hamburger-button"><path id="Rectangle-2" data-name="Rectangle" class="cls-1" d="M18.6,81.55,93.55,6.6a10.5,10.5,0,0,1,14.85,0h0a10.5,10.5,0,0,1,0,14.85l-74.95,75a10.5,10.5,0,0,1-14.85,0h0A10.5,10.5,0,0,1,18.6,81.55Z" transform="translate(-15.52 -3.52)"/></g></g></svg>